<svg width="98" height="51" viewBox="0 0 98 51" fill="none" xmlns="http://www.w3.org/2000/svg">
<path d="M97.1708 48.3214C97.1708 21.6735 75.5649 0 49 0C22.4351 0 0.813965 21.6735 0.813965 48.3214C0.813965 49.3163 1.45482 50.1582 2.33981 50.4796C2.47713 50.5714 2.62971 50.6633 2.7823 50.7245C3.05695 50.8316 3.34686 50.8929 3.63677 50.8929C4.53701 50.8929 5.40675 50.3418 5.75769 49.4541L7.25301 45.7194C7.43611 45.2755 7.78706 44.9388 8.29058 44.7704L20.2532 40.4388C21.8706 45.8418 26.8753 49.8061 32.7803 49.8061C39.494 49.8061 45.0328 44.7092 45.7805 38.1735C48.1303 37.0561 50.9531 37.0867 53.2724 38.2347C54.0505 44.7398 59.5741 49.7908 66.2573 49.7908C72.0402 49.7908 76.9534 46.0102 78.6776 40.7755L89.74 44.7704C90.1825 44.9235 90.5487 45.2602 90.7318 45.7041L92.2118 49.4388C92.5628 50.3418 93.4325 50.8776 94.3328 50.8776C94.6227 50.8776 94.8973 50.8316 95.1872 50.7092C95.3551 50.648 95.4924 50.5561 95.6297 50.4643C96.53 50.1735 97.1708 49.3316 97.1708 48.3214ZM32.7956 45.2143C28.096 45.2143 24.2814 41.3878 24.2814 36.6735C24.2814 31.9745 28.096 28.1327 32.7956 28.1327C37.4952 28.1327 41.3098 31.9592 41.3098 36.6735C41.3098 41.3878 37.4952 45.2143 32.7956 45.2143ZM66.2725 45.2143C61.5729 45.2143 57.7583 41.3878 57.7583 36.6735C57.7583 31.9745 61.5729 28.1327 66.2725 28.1327C70.9721 28.1327 74.7867 31.9592 74.7867 36.6735C74.7867 41.3878 70.9569 45.2143 66.2725 45.2143ZM79.3337 36.1378C79.0438 29.1582 73.3067 23.5561 66.2725 23.5561C60.1692 23.5561 55.0423 27.7806 53.6081 33.4439C50.9836 32.5867 48.0998 32.5714 45.4601 33.398C44.0105 27.7347 38.8837 23.5408 32.7956 23.5408C25.8988 23.5408 20.2379 28.9286 19.7496 35.7245L6.79526 40.4082C6.53587 40.5 6.30699 40.6224 6.06286 40.7449C9.64858 20.25 27.5314 4.59184 49 4.59184C70.4686 4.59184 88.3514 20.25 91.9372 40.7602C91.7083 40.6531 91.4947 40.5306 91.2505 40.4388L79.3337 36.1378Z" fill="#ffffff"/>
</svg>
