<svg width="24" height="24" viewBox="0 0 24 24" fill="none" xmlns="http://www.w3.org/2000/svg">
<path d="M5 23V22C5 19.6833 5.48333 17.804 6.45 16.362C7.41667 14.92 8.75 13.466 10.45 12C8.75 10.5333 7.41667 9.07933 6.45 7.638C5.48333 6.19667 5 4.31733 5 2V1H7V2C7 2.18333 7.00433 2.35433 7.013 2.513C7.02167 2.67167 7.034 2.834 7.05 3H16.95C16.9667 2.83333 16.9793 2.67067 16.988 2.512C16.9967 2.35333 17.0007 2.18267 17 2V1H19V2C19 4.31667 18.5167 6.196 17.55 7.638C16.5833 9.08 15.25 10.534 13.55 12C15.25 13.4667 16.5833 14.9207 17.55 16.362C18.5167 17.8033 19 19.6827 19 22V23H17V22C17 21.8167 16.9957 21.6457 16.987 21.487C16.9783 21.3283 16.966 21.166 16.95 21H7.05C7.03333 21.1667 7.021 21.3293 7.013 21.488C7.005 21.6467 7.00067 21.8173 7 22V23H5ZM8.45 7H15.55C15.7667 6.68333 15.9543 6.36667 16.113 6.05C16.2717 5.73333 16.4173 5.38333 16.55 5H7.45C7.58333 5.36667 7.729 5.71267 7.887 6.038C8.045 6.36333 8.23267 6.684 8.45 7ZM12 10.7C12.3333 10.4167 12.6583 10.1333 12.975 9.85C13.2917 9.56667 13.5917 9.28333 13.875 9H10.125C10.4083 9.28333 10.7083 9.56667 11.025 9.85C11.3417 10.1333 11.6667 10.4167 12 10.7ZM10.125 15H13.875C13.5917 14.7167 13.2917 14.4333 12.975 14.15C12.6583 13.8667 12.3333 13.5833 12 13.3C11.6667 13.5833 11.3417 13.8667 11.025 14.15C10.7083 14.4333 10.4083 14.7167 10.125 15ZM7.45 19H16.55C16.4167 18.6333 16.2707 18.2873 16.112 17.962C15.9533 17.6367 15.766 17.316 15.55 17H8.45C8.23333 17.3167 8.046 17.6333 7.888 17.95C7.73 18.2667 7.584 18.6167 7.45 19Z" fill="#699BF7"/>
</svg>
